<svg width="61" height="66" fill="none" xmlns="http://www.w3.org/2000/svg"><path d="M60 50c-1.913-3.301-4-13.073-4-25 0-6.654-3.274-13.295-8-18S37.684 0 31 0c-6.684 0-13.274 2.295-18 7-4.726 4.705-8 11.346-8 18 0 11.927-2.087 20.715-4 24-.353.602-.997 1.303-1 2-.003.697.652 1.396 1 2 .348.604.394 1.65 1 2 .606.35 1.3 0 2 0h15c.331 2.9 1.812 6.056 4 8 2.188 1.944 5.067 3 8 3s4.812-1.056 7-3c2.188-1.944 3.669-5.1 4-8h15c.697-.002 1.397.349 2 0s.652-1.398 1-2c.348-.602 1-1.306 1-2s-.651-.399-1-1ZM31 63c-2.233 0-5.312-.545-7-2-1.688-1.455-2.681-3.8-3-6h19c-.319 2.2-1.312 4.545-3 6s-3.767 2-6 2Zm27-11c-.113.202.2.884 0 1-.2.116-.768.002-1 0H4c-.232.002-.8.116-1 0-.2-.116.113-.798 0-1-.116-.2 0-.768 0-1-.116.2 0-.232 0 0 2.467-4.235 5-14.34 5-26 0-5.953 2.771-11.79 7-16 4.229-4.21 10.02-6 16-6s10.771 1.79 15 6c4.229 4.21 7 10.047 7 16 0 11.656 2.533 21.765 5 26 0-.232.117.2 0 0 0 .232.116.799 0 1Z" fill="#5C5C5C"/></svg>