<svg width="66" height="87" fill="none" xmlns="http://www.w3.org/2000/svg"><path d="M34.687.094c-3.083.477-5.442 1.208-8.353 2.602C21.942 4.788 18.498 7.304 13.4 12.1c-1.636 1.547-2.445 2.176-2.91 2.312-.724.187-1.636.068-1.636-.221 0-.119.275-.612.602-1.122.362-.578.603-1.157.603-1.497 0-.765-.654-1.394-1.446-1.394-.517 0-.741.153-1.637 1.14C4.6 13.85 1.93 18.458.95 21.655.105 24.462-.016 25.21 0 28.033c.018 2.278.087 2.873.483 4.336.826 3.111 2.686 6.257 5.39 9.097l1.206 1.275.103 5.187c.069 2.941.224 6.138.379 7.397 1.154 9.556 3.875 14.997 9.851 19.758l1.602 1.259v4.931c0 4.66.017 4.931.344 5.254.448.442 1.137.596 1.653.358.81-.358.93-1.038.93-4.949v-3.588l.517.306c.293.154 1.464.97 2.635 1.786 2.738 1.955 4.581 2.942 6.235 3.367 1.584.408 2.669.425 4.253.102 1.878-.408 3.273-1.19 8.198-4.625l1.585-1.123v3.81c0 4.063.069 4.42.878 4.88.534.289 1.223.153 1.705-.358.327-.357.344-.578.344-5.322v-4.965l1.378-1.038c5.046-3.876 7.94-8.706 9.317-15.592.706-3.52.879-5.51.965-11.274l.103-5.663 1.068-1.581c5.511-8.145 6.355-16.443 2.514-24.503-2.153-4.473-6.992-9.897-10.85-12.141-1.722-1.02-3.306-1.429-5.442-1.446-2.583-.017-4.736.578-7.026 1.939-.62.374-1.223.68-1.31.68-.361 0-.706-1.037-.895-2.67C37.84.554 37.84.52 37.27.23c-.465-.238-1.567-.306-2.583-.136Zm.517 3.52c0 .919.654 2.738 1.257 3.52.689.901 1.825 1.514 2.79 1.514.568 0 .947-.153 1.636-.613 1.412-.952 3.255-1.751 4.753-2.057 3.427-.68 6.114.595 10.316 4.914 7.302 7.482 9.042 16.205 4.926 24.622l-.775 1.616-.12-3.06c-.087-2.552-.173-3.232-.483-4.082-1.791-4.846-7.216-7.193-12.658-5.458-3.376 1.07-7.13 1.496-13.261 1.496-6.114-.017-9.3-.374-13.244-1.496-1.602-.442-2.36-.579-3.445-.579-4.512.017-8.042 2.534-9.334 6.632-.224.68-.327 1.87-.413 4.421l-.104 3.486-.912-1.19c-1.172-1.564-2.36-3.911-2.79-5.611-1.034-3.962-.431-7.976 1.808-12.414 1.55-3.043 1.378-2.873 2.497-2.33.74.358 1.171.443 2.136.443 1.929 0 2.704-.442 5.82-3.35 4.771-4.455 7.596-6.53 11.626-8.52 2.652-1.291 6.13-2.448 7.509-2.482.413 0 .465.051.465.578Zm-15.845 23.67c4.133 1.208 7.922 1.65 14.295 1.65 6.423 0 9.868-.391 14.087-1.616 1.516-.442 1.998-.51 3.186-.442 2.515.136 4.564 1.463 5.563 3.588l.5 1.054v10.798c0 11.223-.052 12.277-.793 16.154-.981 5.204-2.824 9.08-5.735 12.056-1.601 1.633-2.772 2.551-6.889 5.357-1.877 1.292-3.892 2.686-4.477 3.112-1.62 1.156-3.634 2.074-4.84 2.193-1.274.136-2.876-.238-4.22-.986-.516-.272-1.945-1.224-3.185-2.075-1.223-.867-3.358-2.33-4.72-3.264-5.734-3.877-8.352-7.057-10.074-12.176-1.653-4.897-2.067-9.607-1.963-22.411.069-7.822.086-8.298.43-9.234 1.275-3.503 4.72-4.965 8.835-3.758Z" fill="#5C5C5C"/></svg>