<svg width="83" height="87" viewBox="0 0 83 61" fill="none" xmlns="http://www.w3.org/2000/svg"><path d="M52.78.058c-3.655.285-6.84 1.309-14.132 4.563-3.71 1.661-6.587 2.701-9.084 3.288-3.493.84-5.845 1.04-14.15 1.192-8.307.167-9.61.285-11.564 1.14C.231 11.818-.837 15.408.647 20.894c1.158 4.278 2.606 6.459 4.976 7.499 1.43.637 2.823.755 5.176.436 5.356-.755 11.2-2.684 29.134-9.63 4.523-1.744 9.047-3.455 10.043-3.807 5.193-1.812 9.102-2.047 13.1-.806 4.633 1.443 8.85 4.496 16.052 11.676 1.737 1.728 2.044 1.963 2.57 1.963.741 0 1.302-.503 1.302-1.174 0-.923-3.384-6.76-6.207-10.653C72.27 10.09 67.221 4.756 63.82 2.658 60.56.629 56.816-.243 52.78.059Zm3.402 2.584c1.376.134 3.728.855 5.103 1.543 2.37 1.191 4.416 3.02 8.36 7.5 3.131 3.539 6.063 7.313 5.447 7.011-.199-.1-.47-.302-.597-.47-.434-.469-2.732-2.147-4.343-3.17-1.954-1.241-5.067-2.634-7.148-3.22-1.465-.404-1.918-.454-4.614-.454-4.741-.017-6.514.453-16.829 4.429-10.025 3.858-18.113 6.912-20.629 7.767-4.125 1.426-8.306 2.466-11.038 2.785-3.764.436-5.465-1.208-6.623-6.358-.452-2.03-.56-4.194-.253-5.217.488-1.594 1.9-2.517 4.343-2.819.742-.084 3.673-.218 6.514-.268 10.405-.202 14.169-.587 18.512-1.846 2.026-.603 3.8-1.308 8.722-3.489 6.116-2.7 8.559-3.506 11.581-3.808 1.249-.118 1.592-.1 3.492.084ZM31.89 36.11c-6.542.47-12.323 1.737-16.075 3.56-1.939.937-3.624 2.118-3.751 2.639-.2.712.072 1.267.743 1.545.725.278.979.208 2.175-.642 3.153-2.24 8.953-3.768 16.474-4.341 3.878-.295 11.744-.104 15.314.347 5.545.73 9.786 1.823 13.12 3.42 1.704.817 1.795.834 2.266.591.725-.4 1.033-1.094.725-1.684-.725-1.424-6.578-3.56-12.305-4.462-5.51-.868-13.919-1.302-18.685-.973Zm33.277 12.697c-7.924 3.325-16.988 4.955-27.589 4.955-8.321 0-16.408-1.103-25.309-3.44-1.682-.445-3.184-.775-3.346-.725-.615.197-.923.609-.923 1.202 0 .724.308 1.02 1.52 1.432.868.296.904.313 1.121 1.234.362 1.433 1.248 2.865 2.497 4.017.959.906 1.212 1.054 1.755 1.054.741 0 1.194-.362 1.356-1.103.09-.428-.018-.61-.995-1.515-.995-.954-1.99-2.387-1.772-2.584.036-.05.615.05 1.284.197l1.194.264.633 1.103c.76 1.317 2.497 3.111 3.962 4.082 1.393.939 2.225.955 2.75.033.398-.724.163-1.234-.941-1.893-.868-.527-2.876-2.354-2.732-2.486.073-.05 3.763.577 3.835.642.019.033.181.28.326.56.76 1.366 3.998 4.181 5.066 4.445.976.214 1.917-.642 1.664-1.531-.054-.198-.688-.774-1.43-1.284-.741-.494-1.465-1.103-1.645-1.334l-.308-.444 1.05.115c2.876.296 2.604.181 3.509 1.449.868 1.234 2.786 2.98 3.853 3.49.543.28.706.296 1.176.115.615-.23 1.031-.971.85-1.482-.054-.18-.615-.708-1.248-1.152-.633-.46-1.357-1.087-1.628-1.416l-.489-.576h3.22l.833.955c.922 1.07 2.786 2.535 4.251 3.309 1.212.642 2.044.675 2.55.082.724-.84.38-1.465-1.302-2.337-.723-.363-1.628-.955-2.026-1.301l-.723-.61 1.772-.147 1.773-.148.38.477c.869 1.054 3.42 3.144 4.631 3.786 1.864 1.005 2.913.922 3.22-.214.181-.675-.18-1.136-1.447-1.778-1.465-.74-3.491-2.403-3.148-2.568.127-.066.706-.18 1.267-.23l1.05-.115 1.302 1.218c1.465 1.366 3.22 2.47 5.481 3.424 1.719.74 2.044.774 2.587.313.832-.708.597-1.778-.47-2.173-1.864-.675-3.872-1.696-4.722-2.42-.543-.461-.94-.873-.886-.922.054-.05.741-.23 1.52-.412l1.41-.296.995.823c1.411 1.136 3.42 2.321 5.536 3.26 2.985 1.317 3.926 1.432 4.54.576.399-.544.146-1.4-.47-1.663-5.734-2.519-7.67-3.54-7.308-3.852.09-.066.597-.247 1.121-.412l.977-.28.742.478c2.37 1.514 5.482 2.568 9.064 3.095 1.664.247 2.134.132 2.46-.593.488-1.053-.163-1.662-1.99-1.86-1.864-.214-4.016-.757-5.536-1.4-.832-.361-1.52-.707-1.52-.79 0-.065.453-.296.996-.51.904-.33 1.067-.346 1.501-.132 2.641 1.235 8.937 1.614 9.841.593a1.145 1.145 0 0 0-.036-1.613c-.344-.33-.543-.362-2.858-.346-2.732 0-4.487-.296-6.17-1.07-.506-.23-1.048-.428-1.23-.428-.18 0-1.175.362-2.224.807Z" fill="#5C5C5C"/></svg>