<svg width="159" height="20" viewBox="0 0 159 20" fill="none" xmlns="http://www.w3.org/2000/svg">
<path d="M7 18.9999H0V17.9999H2V1.9999H0V0.999897H7V1.9999H5V8.9999H14V1.9999H11V0.999897H19V1.9999H16V17.9999H18C17.9025 17.9805 18.0975 17.9999 18 17.9999C18.3119 18.058 19 18.5741 19 18.9999H11V17.9999H14V9.9999H5V17.9999H6C6.09746 17.9999 6.90254 17.9805 7 17.9999C7.31188 18.058 7 18.5741 7 18.9999Z" fill="#5C5C5C"/>
<path d="M38 18.9999H31V17.9999H33L31 11.9999H25L23 17.9999H24C24.0975 17.9999 24.9025 17.9805 25 17.9999C25.3119 18.058 25 18.5741 25 18.9999H20V17.9999H22L28 0.999897H29L36 17.9999H37C36.9025 17.9805 37.0975 17.9999 37 17.9999C37.3119 18.058 38 18.5741 38 18.9999ZM31 10.9999L28 3.9999L25 10.9999H31Z" fill="#5C5C5C"/>
<path d="M46 18.9999H39V17.9999H41V1.9999H39V0.999897H46V1.9999H44V17.9999H45C45.0975 17.9999 45.9025 17.9805 46 17.9999C46.3119 18.058 46 18.5741 46 18.9999Z" fill="#5C5C5C"/>
<path d="M56 18.9999H48V17.9999H51V1.9999H48V0.999897H57C58.5204 0.999897 59.9669 1.30312 61 1.9999C62.267 2.87086 63 4.54828 63 5.9999C63 6.5999 62.2534 7.41925 62 7.9999C61.3178 9.47087 60.8518 9.55474 59 9.9999L63 17.9999H64C64.1364 17.9999 64.9025 17.9805 65 17.9999C65.2339 18.058 65 18.5741 65 18.9999H61L56 10.9999H53V17.9999H56V18.9999ZM56 1.9999H53V9.9999H56C56.8772 9.9999 58.3373 9.52248 59 8.9999C59.9746 8.2257 60 7.39345 60 5.9999C60 5.38054 60.2534 4.56119 60 3.9999C59.3568 2.64506 57.6764 1.9999 56 1.9999Z" fill="#5C5C5C"/>
<path d="M87 16.9999C85.2067 18.0644 82.9687 18.9805 81 18.9999C78.31 18.9999 76.6764 17.7805 75 15.9999C73.4211 14.2773 72 12.5354 72 9.9999C72 7.90957 72.8694 5.60635 74 3.9999C75.6374 1.73538 77.9202 0.999897 81 0.999897C81.9356 0.999897 83.1033 0.786994 84 0.999897C85.3645 1.34828 86.4347 2.43861 87 2.9999C87 2.47732 86.9415 2.23216 87 1.9999C87.0975 1.72893 87.5712 0.999897 88 0.999897V5.9999H87C86.8636 5.57409 86.1949 5.40635 86 4.9999C84.9084 2.71603 83.4366 1.9999 81 1.9999C79.9279 1.9999 78.8772 2.45796 78 2.9999C75.9923 4.29667 75 6.38054 75 9.9999C75 11.6838 75.5517 12.7612 76 13.9999C76.9161 16.5354 78.466 17.9999 81 17.9999C83.9823 17.9805 86.0059 16.1934 87 12.9999H88V18.9999C87.7661 18.9999 87.1364 19.058 87 18.9999C86.7661 18.8838 87 17.8128 87 16.9999Z" fill="#5C5C5C"/>
<path d="M103 18.9999H90V17.9999H93V1.9999H90V0.999897H98V1.9999H95V17.9999H99C99.2144 17.9999 99.7661 18.0386 100 17.9999C101.092 17.7483 101.532 16.7805 102 14.9999L103 12.9999V18.9999Z" fill="#5C5C5C"/>
<path d="M112 18.9999H105V17.9999H107V1.9999H105V0.999897H112V1.9999H110V17.9999H111C110.903 17.9805 111.097 17.9999 111 17.9999C111.312 18.058 112 18.5741 112 18.9999Z" fill="#5C5C5C"/>
<path d="M126 1.9999V0.999897H132V1.9999H130V18.9999H129L117 4.9999V17.9999H119C118.903 17.9805 119.097 17.9999 119 17.9999C119.312 18.058 120 18.5741 120 18.9999H114V17.9999H116V1.9999H114V0.999897H118L129 14.9999V1.9999H126Z" fill="#5C5C5C"/>
<path d="M141 18.9999H134V17.9999H136V1.9999H134V0.999897H141V1.9999H139V17.9999H140C139.903 17.9805 140.097 17.9999 140 17.9999C140.312 18.058 141 18.5741 141 18.9999Z" fill="#5C5C5C"/>
<path d="M158 16.9999C156.207 18.0644 153.969 18.9805 152 18.9999C149.31 18.9999 147.676 17.7805 146 15.9999C144.421 14.2773 144 12.5354 144 9.9999C144 7.90957 143.869 5.60635 145 3.9999C146.637 1.73538 148.92 0.999897 152 0.999897C152.936 0.999897 154.103 0.786994 155 0.999897C156.364 1.34828 157.435 2.43861 158 2.9999C158 2.47732 157.942 2.23216 158 1.9999C158.097 1.72893 158.571 0.999897 159 0.999897V5.9999H158C157.864 5.57409 158.195 5.40635 158 4.9999C156.908 2.71603 154.437 1.9999 152 1.9999C150.928 1.9999 149.877 2.45796 149 2.9999C146.992 4.29667 146 6.38054 146 9.9999C146 11.6838 146.552 12.7612 147 13.9999C147.916 16.5354 149.466 17.9999 152 17.9999C154.982 17.9805 157.006 16.1934 158 12.9999H159V18.9999C158.766 18.9999 158.136 19.058 158 18.9999C157.766 18.8838 158 17.8128 158 16.9999Z" fill="#5C5C5C"/>
</svg>
