<svg xmlns="http://www.w3.org/2000/svg" >
    <symbol id="arrow" viewBox="0 0 15 8">
        <path d="M1 0.500311L7.51373 7.49964M7.48627 7.49933L14 0.5"/>
    </symbol>
    <symbol id="vk" viewBox="0 0 25 15">
        <path d="M14.8274 13.9114V10.1062C17.5029 10.4958 18.3488 12.5073 20.0525 13.9114H24.3957C23.3098 11.5955 21.6897 9.54433 19.6565 7.91128C21.2162 5.85967 22.8719 3.92841 23.6818 1H19.7345C18.1868 3.24072 17.371 5.8654 14.8274 7.59609V1H9.09849L10.4662 2.61607V8.37547C8.24665 8.12905 6.74693 4.24933 5.12123 1H1C2.49972 5.38975 5.65513 15.0231 14.8274 13.9114Z" stroke-width="1.05172" stroke-linecap="round" stroke-linejoin="round"/>
    </symbol>
    <symbol id="insta" viewBox="0 0 18 18">
        <path d="M8.65388 5.34853H8.65373C7.92006 5.34853 7.20268 5.5624 6.59231 5.96335C5.98191 6.36431 5.50581 6.93444 5.22458 7.60191C4.94334 8.2694 4.86972 9.00403 5.01312 9.71279C5.15653 10.4215 5.51044 11.0722 6.02973 11.5828C6.54901 12.0933 7.21034 12.4407 7.92997 12.5814C8.64959 12.7221 9.39553 12.6499 10.0735 12.3738C10.7516 12.0977 11.3314 11.63 11.7396 11.0295C12.1477 10.429 12.3657 9.7227 12.3657 9V8.99985C12.3646 8.03107 11.9726 7.10274 11.2765 6.4184C10.5805 5.73414 9.63727 5.34963 8.65388 5.34853ZM12.5599 0.868534H12.5598L4.74767 0.868534L4.74753 0.868535C3.59154 0.869844 2.48285 1.32185 1.66477 2.12609C0.846622 2.9304 0.385982 4.02139 0.384648 5.15985V5.16L0.384648 12.84L0.384648 12.8402C0.385982 13.9786 0.846622 15.0696 1.66477 15.8739C2.48285 16.6782 3.59154 17.1302 4.74753 17.1315H4.74767H12.5598H12.5599C13.7159 17.1302 14.8246 16.6782 15.6427 15.8739C16.4608 15.0696 16.9215 13.9786 16.9228 12.8402V12.84V5.16V5.15985C16.9215 4.02139 16.4608 2.9304 15.6427 2.12609C14.8246 1.32185 13.7159 0.869844 12.5599 0.868534ZM12.4514 4.19798L12.5236 4.30786L12.4514 4.19798C12.3228 4.28248 12.2222 4.40282 12.1627 4.54404C12.1032 4.68528 12.0876 4.84083 12.1179 4.99093C12.1483 5.14101 12.2232 5.27856 12.3328 5.3863C12.4424 5.49402 12.5817 5.56713 12.7331 5.59672C12.8844 5.62632 13.0413 5.61115 13.184 5.55304C13.3267 5.49492 13.4491 5.39636 13.5353 5.26946C13.6216 5.14254 13.6678 4.99308 13.6678 4.84C13.6678 4.63466 13.5848 4.4382 13.4378 4.2937C13.2909 4.14928 13.0921 4.06853 12.8853 4.06853C12.731 4.06853 12.58 4.1135 12.4514 4.19798ZM8.65373 11.7485C8.09983 11.7485 7.55855 11.5871 7.09834 11.2848C6.63816 10.9825 6.27984 10.5531 6.06834 10.0511C5.85685 9.54913 5.80155 8.99693 5.90933 8.46421C6.01712 7.93148 6.28324 7.44182 6.6744 7.05728C7.06557 6.67272 7.56423 6.41058 8.10744 6.30436C8.65065 6.19814 9.21368 6.25267 9.72524 6.46098C10.2368 6.66929 10.6736 7.02189 10.9808 7.47386C11.288 7.9258 11.4518 8.4569 11.4518 9C11.4518 9.72823 11.1576 10.4271 10.6331 10.9427C10.1085 11.4584 9.39654 11.7485 8.65373 11.7485ZM16.0089 12.8398C16.0078 13.7375 15.6447 14.5986 14.9983 15.2341C14.3518 15.8696 13.4748 16.2275 12.5596 16.2285H4.74782C3.83263 16.2275 2.95566 15.8696 2.3092 15.2341C1.66283 14.5987 1.29965 13.7376 1.29859 12.84V5.16005C1.29965 4.26239 1.66283 3.40134 2.3092 2.7659C2.95564 2.13039 3.83256 1.77251 4.74772 1.77147H12.5597C13.4749 1.77251 14.3518 2.13039 14.9983 2.7659C15.6447 3.40136 16.0078 4.26246 16.0089 5.16015V12.8398Z" stroke-width="0.262931"/>
    </symbol>
    <symbol id="yt" viewBox="0 0 23 18">
        <path d="M9.8042 12.4539L9.80417 12.4539C9.72863 12.4149 9.66512 12.3567 9.6207 12.2851C9.57626 12.2135 9.5527 12.1314 9.55281 12.0475M9.8042 12.4539L9.63169 5.95239M9.8042 12.4539C9.87978 12.4929 9.96473 12.5113 10.05 12.5073M9.8042 12.4539L10.05 12.5073M9.55281 12.0475L9.63169 12.0476H9.55281V12.0475ZM9.55281 12.0475V5.95244M9.55281 5.95244L9.63169 5.95239M9.55281 5.95244V5.95239H9.63169M9.55281 5.95244C9.55275 5.86856 9.57636 5.78644 9.62084 5.71487C9.6653 5.64333 9.72885 5.58514 9.80441 5.54618C9.87995 5.50723 9.96484 5.48887 10.0501 5.49284L9.63169 5.95239M20.9739 3.71716C20.9279 3.54161 20.8393 3.37908 20.7154 3.24298C20.5914 3.10687 20.4356 3.00107 20.2609 2.9343C17.0872 1.75314 11.7587 1.76168 11.6122 1.76192L11.6096 1.76192L11.6071 1.76192L20.9739 3.71716ZM20.9739 3.71716C21.2152 4.60287 21.499 6.2381 21.499 9C21.499 11.7619 21.2152 13.3971 20.9769 14.2828L20.9739 3.71716ZM10.05 12.5073C10.1353 12.5033 10.218 12.477 10.2894 12.4311L10.05 12.5073ZM21.8182 3.50516C21.7375 3.2005 21.5829 2.9189 21.3673 2.68346C21.1515 2.44767 20.8808 2.26493 20.5776 2.15006L20.5772 2.1499C18.8954 1.52411 16.7077 1.21751 14.9169 1.06689C13.1683 0.919825 11.7913 0.920989 11.6202 0.921133C11.6159 0.921137 11.6123 0.92114 11.6096 0.92114C11.6068 0.92114 11.6033 0.921137 11.599 0.921133C11.4278 0.920989 10.0509 0.919825 8.30223 1.06689C6.51148 1.21751 4.32376 1.52411 2.64199 2.1499L2.64199 2.1499L2.64156 2.15006C2.33852 2.26483 2.06786 2.44742 1.85202 2.68303C1.63622 2.91859 1.48142 3.20041 1.40063 3.50534C1.14724 4.44212 0.850076 6.15304 0.850076 9C0.850076 11.847 1.14724 13.5579 1.40063 14.4947C1.48142 14.7996 1.63622 15.0814 1.85202 15.317C2.06786 15.5526 2.33852 15.7352 2.64156 15.8499L2.64199 15.8501C4.32376 16.4759 6.51148 16.7825 8.30223 16.9331C10.0508 17.0802 11.4278 17.079 11.599 17.0789C11.6033 17.0789 11.6068 17.0789 11.6096 17.0789H11.6798C12.0218 17.0789 13.448 17.0686 15.187 16.9102C16.9245 16.7519 18.9808 16.4453 20.5801 15.8501L20.5806 15.8499C20.8836 15.7352 21.1543 15.5526 21.3701 15.317C21.5859 15.0814 21.7407 14.7996 21.8215 14.4946C22.0719 13.5571 22.3691 11.8472 22.3691 9C22.3691 6.15282 22.0719 4.44186 21.8185 3.50513L21.8182 3.50516ZM2.98313 3.00811C4.57303 2.41693 6.71327 2.12447 8.46822 1.9803C10.1924 1.83865 11.5371 1.84069 11.6071 1.8408L11.6096 1.8408L11.6121 1.8408C11.6836 1.84068 13.027 1.8385 14.7495 1.97994C16.5036 2.12399 18.6431 2.41645 20.233 3.00809C20.3963 3.07054 20.5416 3.16933 20.657 3.29609C20.7726 3.42291 20.8549 3.57411 20.8976 3.73714L20.8978 3.73789C21.1368 4.61525 21.4202 6.24324 21.4202 9C21.4202 11.7567 21.1368 13.3848 20.9007 14.2623L20.898 14.2724V14.2782C20.8546 14.4376 20.7732 14.5853 20.66 14.7096C20.5446 14.8364 20.3993 14.9351 20.2361 14.9976C18.6462 15.5859 16.5059 15.877 14.751 16.0204C13.0268 16.1613 11.6822 16.1593 11.612 16.1592L11.6096 16.1592L11.6071 16.1592C11.5371 16.1593 10.1932 16.1613 8.46971 16.0197C6.71549 15.8755 4.57596 15.5831 2.98605 14.9919C2.82279 14.9294 2.67754 14.8306 2.56211 14.7039C2.4466 14.5771 2.36424 14.4259 2.32155 14.2629L2.32135 14.2621C2.08232 13.3847 1.79899 11.7568 1.79899 9C1.79899 6.24329 2.08231 4.61519 2.31845 3.73765L2.31858 3.73714C2.36127 3.57411 2.44363 3.42291 2.55914 3.29609C2.67459 3.16934 2.81985 3.07056 2.98313 3.00811ZM15.0363 8.61645L10.2894 5.56888L15.0364 9.38352C15.1014 9.34185 15.155 9.28515 15.1922 9.21824C15.2295 9.15129 15.2491 9.07631 15.2491 9C15.2491 8.92369 15.2295 8.84871 15.1922 8.78176C15.155 8.71483 15.1013 8.65812 15.0363 8.61645ZM10.2895 12.4311L15.0363 9.38355L10.2895 12.4311ZM10.5017 11.1918V6.8082L13.9152 9L10.5017 11.1918Z" stroke-width="0.2"/>
    </symbol>
    <symbol id="dzen" viewBox="0 0 18 17">
        <path d="M10.0046 4.22444C9.82488 3.30303 9.7633 2.13624 9.70961 0.526141C11.2614 0.528207 12.555 0.54517 13.615 0.679544C14.7957 0.829219 15.5906 1.11494 16.1039 1.60146C16.5948 2.10224 16.8856 2.90487 17.0381 4.08157C17.1739 5.12928 17.1917 6.39291 17.194 7.8657C15.5511 7.81061 14.3594 7.75025 13.4177 7.57336C12.4049 7.3831 11.7195 7.06408 11.1101 6.48566C10.5221 5.88697 10.198 5.21547 10.0046 4.22444ZM4.73019 7.57336C3.78853 7.75025 2.59677 7.81061 0.953917 7.8657C0.956183 6.39291 0.97401 5.12928 1.10981 4.08157C1.26232 2.90488 1.55309 2.10225 2.04398 1.60146C2.55722 1.11506 3.35345 0.82926 4.53516 0.679549C5.59567 0.545193 6.88915 0.528213 8.43829 0.526141C8.38461 2.13624 8.32302 3.30303 8.14327 4.22444C7.94993 5.21547 7.62578 5.88697 7.03776 6.48567C6.42841 7.06408 5.74301 7.3831 4.73019 7.57336ZM8.14088 12.7752C8.32004 13.6969 8.38151 14.8637 8.43746 16.4739C6.88606 16.4718 5.59268 16.4548 4.53289 16.3205C3.3522 16.1708 2.55733 15.8851 2.04398 15.3985C1.55309 14.8978 1.26232 14.0951 1.10981 12.9184C0.973985 11.8705 0.956176 10.6066 0.953916 9.1335C2.59666 9.18634 3.7885 9.24682 4.72984 9.4243C5.74232 9.6152 6.42804 9.93557 7.03776 10.5143C7.62541 11.1127 7.94819 11.7838 8.14088 12.7752ZM13.4177 9.42664C14.3594 9.24975 15.5511 9.18939 17.194 9.1343C17.1917 10.6071 17.1739 11.8707 17.0381 12.9184C16.8856 14.0951 16.5948 14.8978 16.1039 15.3985C15.5906 15.8851 14.7957 16.1708 13.615 16.3205C12.555 16.4548 11.2614 16.4718 9.70961 16.4739C9.7633 14.8638 9.82488 13.697 10.0046 12.7756C10.198 11.7845 10.5221 11.113 11.1101 10.5143C11.7195 9.93593 12.4049 9.61691 13.4177 9.42664Z" stroke-width="1.05172"/>
    </symbol>
    <symbol id="telegram" viewBox="0 0 15 15">
        <path d="M14.8344 0.130289C14.7687 0.0665226 14.6886 0.0241258 14.6029 0.00767349C14.5173 -0.00877881 14.4292 0.00133799 14.3483 0.0369322L0.530036 6.10588C0.361963 6.17968 0.219763 6.31269 0.124791 6.48493C0.029819 6.65717 -0.0127975 6.85934 0.00334161 7.06108C0.0194807 7.26282 0.093504 7.45324 0.214295 7.60374C0.335086 7.75424 0.496123 7.85669 0.673223 7.89572L4.36336 8.70915V13.315C4.36344 13.5285 4.42037 13.7371 4.52685 13.9141C4.63333 14.0911 4.78449 14.2283 4.96095 14.3081C5.13741 14.388 5.3311 14.4068 5.51717 14.3623C5.70324 14.3177 5.8732 14.2118 6.00524 14.058L7.82167 11.9437L10.6568 14.7329C10.8299 14.9048 11.053 14.9998 11.2841 15C11.385 14.9997 11.4853 14.9819 11.5814 14.9472C11.7389 14.8913 11.8805 14.79 11.9923 14.6534C12.104 14.5169 12.1819 14.3498 12.2182 14.169L14.9879 0.655993C15.0073 0.560995 15.0033 0.461833 14.9763 0.369195C14.9493 0.276557 14.9002 0.193955 14.8344 0.130289ZM0.821183 6.992C0.818572 6.9841 0.818572 6.97541 0.821183 6.96751C0.824263 6.96484 0.827721 6.96277 0.831411 6.96139L11.7211 2.17725L4.67769 7.83986L0.831411 6.99506L0.821183 6.992ZM5.41613 13.4198C5.39734 13.4417 5.37316 13.4568 5.34669 13.4632C5.32022 13.4696 5.29264 13.4671 5.26748 13.4558C5.24232 13.4446 5.22072 13.4252 5.20542 13.4001C5.19012 13.375 5.18182 13.3454 5.18157 13.315V9.34428L7.20597 11.3338L5.41613 13.4198ZM11.4211 13.9616C11.4161 13.9875 11.405 14.0114 11.3889 14.0307C11.3728 14.0501 11.3524 14.0643 11.3298 14.0718C11.3067 14.0809 11.2818 14.0828 11.2578 14.0775C11.2338 14.0721 11.2116 14.0595 11.1934 14.0412L5.42977 8.36709L13.9774 1.49238L11.4211 13.9616Z" />
    </symbol>
    <symbol id="telegram-mob" viewBox="0 0 25 25">
        <circle cx="12.5" cy="12.5" r="12.5" fill="#51B8C1" />
        <path d="M18.8344 5.13029C18.7687 5.06652 18.6886 5.02413 18.6029 5.00767C18.5173 4.99122 18.4292 5.00134 18.3483 5.03693L4.53004 11.1059C4.36196 11.1797 4.21976 11.3127 4.12479 11.4849C4.02982 11.6572 3.9872 11.8593 4.00334 12.0611C4.01948 12.2628 4.0935 12.4532 4.21429 12.6037C4.33509 12.7542 4.49612 12.8567 4.67322 12.8957L8.36336 13.7091V18.315C8.36344 18.5285 8.42037 18.7371 8.52685 18.9141C8.63333 19.0911 8.78449 19.2283 8.96095 19.3081C9.13741 19.388 9.3311 19.4068 9.51717 19.3623C9.70324 19.3177 9.8732 19.2118 10.0052 19.058L11.8217 16.9437L14.6568 19.7329C14.8299 19.9048 15.053 19.9998 15.2841 20C15.385 19.9997 15.4853 19.9819 15.5814 19.9472C15.7389 19.8913 15.8805 19.79 15.9923 19.6534C16.104 19.5169 16.1819 19.3498 16.2182 19.169L18.9879 5.65599C19.0073 5.56099 19.0033 5.46183 18.9763 5.3692C18.9493 5.27656 18.9002 5.19395 18.8344 5.13029ZM4.82118 11.992C4.81857 11.9841 4.81857 11.9754 4.82118 11.9675C4.82426 11.9648 4.82772 11.9628 4.83141 11.9614L15.7211 7.17725L8.67769 12.8399L4.83141 11.9951L4.82118 11.992ZM9.41613 18.4198C9.39734 18.4417 9.37316 18.4568 9.34669 18.4632C9.32022 18.4696 9.29264 18.4671 9.26748 18.4558C9.24232 18.4446 9.22072 18.4252 9.20542 18.4001C9.19012 18.375 9.18182 18.3454 9.18157 18.315V14.3443L11.206 16.3338L9.41613 18.4198ZM15.4211 18.9616C15.4161 18.9875 15.405 19.0114 15.3889 19.0307C15.3728 19.0501 15.3524 19.0643 15.3298 19.0718C15.3067 19.0809 15.2818 19.0828 15.2578 19.0775C15.2338 19.0721 15.2116 19.0595 15.1934 19.0412L9.42977 13.3671L17.9774 6.49238L15.4211 18.9616Z" fill="white" />
    </symbol>
    <symbol id="whatsapp" viewBox="0 0 15 15">
        <path d="M11.8173 8.86985L9.46418 7.69338C9.39467 7.65882 9.31728 7.6432 9.23981 7.64811C9.16235 7.65302 9.08755 7.67827 9.02296 7.72132L7.86992 8.48971C7.28619 8.19091 6.81127 7.71603 6.51244 7.13235L7.28163 5.98015C7.32469 5.91557 7.34994 5.84077 7.35485 5.76331C7.35976 5.68585 7.34414 5.60847 7.30957 5.53897L6.133 3.18603C6.09642 3.11242 6.03999 3.05048 5.97009 3.00722C5.90019 2.96396 5.81959 2.94108 5.73738 2.94118C4.99626 2.94118 4.28551 3.23556 3.76146 3.75956C3.23742 4.28355 2.94301 4.99425 2.94301 5.73529C2.94496 7.4118 3.61187 9.01909 4.79744 10.2046C5.98302 11.39 7.59044 12.0569 9.2671 12.0588C10.0082 12.0588 10.719 11.7644 11.243 11.2404C11.7671 10.7164 12.0615 10.0058 12.0615 9.26471C12.0615 9.18271 12.0387 9.10232 11.9955 9.03257C11.9524 8.96283 11.8907 8.90648 11.8173 8.86985ZM9.2671 11.1765C7.82442 11.1747 6.44133 10.6009 5.4212 9.58085C4.40107 8.56081 3.82719 7.17785 3.82544 5.73529C3.82548 5.27389 3.99241 4.82808 4.29542 4.48009C4.59842 4.13211 5.01707 3.90544 5.47412 3.84191L6.40508 5.70368L5.64104 6.84927C5.6009 6.90969 5.57627 6.97907 5.56935 7.05128C5.56242 7.12349 5.57341 7.19629 5.60133 7.26324C6.00705 8.22776 6.77441 8.99505 7.73902 9.40074C7.80598 9.42866 7.87878 9.43965 7.951 9.43272C8.02321 9.42579 8.09261 9.40117 8.15303 9.36103L9.29872 8.59706L11.1606 9.52794C11.0971 9.98495 10.8704 10.4036 10.5224 10.7065C10.1744 11.0095 9.72854 11.1764 9.2671 11.1765ZM7.50224 1.65306e-07C6.20197 -0.000272773 4.92396 0.337447 3.79359 0.980026C2.66323 1.62261 1.71934 2.54797 1.05452 3.66534C0.389711 4.7827 0.0268114 6.05369 0.00142951 7.3536C-0.0239524 8.65351 0.289055 9.93769 0.909743 11.0801L0.0552561 13.6441C-0.00523704 13.8255 -0.014016 14.0201 0.0299033 14.2062C0.0738225 14.3923 0.168704 14.5625 0.303914 14.6977C0.439124 14.8329 0.609318 14.9278 0.795422 14.9717C0.981525 15.0156 1.17618 15.0068 1.35758 14.9463L3.92177 14.0919C4.92553 14.6366 6.04041 14.9449 7.18141 14.9933C8.32241 15.0417 9.4594 14.8289 10.5057 14.3712C11.552 13.9135 12.4799 13.223 13.2188 12.3522C13.9576 11.4815 14.4878 10.4535 14.7691 9.34676C15.0503 8.23999 15.075 7.08363 14.8414 5.96585C14.6078 4.84807 14.122 3.79838 13.4211 2.89684C12.7202 1.99529 11.8226 1.26569 10.7969 0.76366C9.77111 0.261634 8.64427 0.000441809 7.50224 1.65306e-07ZM7.50224 14.1176C6.33885 14.1179 5.19594 13.8116 4.18871 13.2294C4.12156 13.1908 4.04555 13.1703 3.9681 13.1699C3.92063 13.1701 3.87349 13.1778 3.82838 13.1926L1.07888 14.1088C1.05296 14.1175 1.02515 14.1187 0.998568 14.1124C0.971982 14.1062 0.947669 14.0926 0.928353 14.0733C0.909037 14.054 0.895483 14.0297 0.889208 14.0031C0.882934 13.9765 0.884188 13.9487 0.89283 13.9228L1.80909 11.1765C1.82891 11.1171 1.83589 11.0542 1.82955 10.992C1.82321 10.9298 1.8037 10.8696 1.77232 10.8154C1.0423 9.55448 0.748859 8.08787 0.937534 6.64313C1.12621 5.19839 1.78644 3.85629 2.81582 2.82506C3.84519 1.79383 5.18614 1.1311 6.63065 0.939701C8.07515 0.748302 9.54245 1.03893 10.8049 1.76649C12.0674 2.49406 13.0544 3.61789 13.6129 4.96363C14.1714 6.30937 14.2701 7.80178 13.8937 9.20934C13.5173 10.6169 12.6869 11.8609 11.5313 12.7484C10.3756 13.6359 8.95937 14.1172 7.50224 14.1176Z" />
    </symbol>
    <symbol id="whatsapp-mob" viewBox="0 0 25 25">
        <rect width="25" height="25" rx="12.5" fill="#82C151" />
        <path d="M16.8173 13.8699L14.4642 12.6934C14.3947 12.6588 14.3173 12.6432 14.2398 12.6481C14.1623 12.653 14.0875 12.6783 14.023 12.7213L12.8699 13.4897C12.2862 13.1909 11.8113 12.716 11.5124 12.1324L12.2816 10.9801C12.3247 10.9156 12.3499 10.8408 12.3548 10.7633C12.3598 10.6859 12.3441 10.6085 12.3096 10.539L11.133 8.18603C11.0964 8.11242 11.04 8.05048 10.9701 8.00722C10.9002 7.96396 10.8196 7.94108 10.7374 7.94118C9.99626 7.94118 9.28551 8.23556 8.76146 8.75956C8.23742 9.28355 7.94301 9.99425 7.94301 10.7353C7.94496 12.4118 8.61187 14.0191 9.79744 15.2046C10.983 16.39 12.5904 17.0569 14.2671 17.0588C15.0082 17.0588 15.719 16.7644 16.243 16.2404C16.7671 15.7164 17.0615 15.0058 17.0615 14.2647C17.0615 14.1827 17.0387 14.1023 16.9955 14.0326C16.9524 13.9628 16.8907 13.9065 16.8173 13.8699ZM14.2671 16.1765C12.8244 16.1747 11.4413 15.6009 10.4212 14.5809C9.40107 13.5608 8.82719 12.1778 8.82544 10.7353C8.82548 10.2739 8.99241 9.82808 9.29542 9.48009C9.59842 9.13211 10.0171 8.90544 10.4741 8.84191L11.4051 10.7037L10.641 11.8493C10.6009 11.9097 10.5763 11.9791 10.5693 12.0513C10.5624 12.1235 10.5734 12.1963 10.6013 12.2632C11.0071 13.2278 11.7744 13.9951 12.739 14.4007C12.806 14.4287 12.8788 14.4396 12.951 14.4327C13.0232 14.4258 13.0926 14.4012 13.153 14.361L14.2987 13.5971L16.1606 14.5279C16.0971 14.9849 15.8704 15.4036 15.5224 15.7065C15.1744 16.0095 14.7285 16.1764 14.2671 16.1765ZM12.5022 5C11.202 4.99973 9.92396 5.33745 8.79359 5.98003C7.66323 6.62261 6.71934 7.54797 6.05452 8.66534C5.38971 9.7827 5.02681 11.0537 5.00143 12.3536C4.97605 13.6535 5.28905 14.9377 5.90974 16.0801L5.05526 18.6441C4.99476 18.8255 4.98598 19.0201 5.0299 19.2062C5.07382 19.3923 5.1687 19.5625 5.30391 19.6977C5.43912 19.8329 5.60932 19.9278 5.79542 19.9717C5.98153 20.0156 6.17618 20.0068 6.35758 19.9463L8.92177 19.0919C9.92553 19.6366 11.0404 19.9449 12.1814 19.9933C13.3224 20.0417 14.4594 19.8289 15.5057 19.3712C16.552 18.9135 17.4799 18.223 18.2188 17.3522C18.9576 16.4815 19.4878 15.4535 19.7691 14.3468C20.0503 13.24 20.075 12.0836 19.8414 10.9658C19.6078 9.84807 19.122 8.79838 18.4211 7.89684C17.7202 6.99529 16.8226 6.26569 15.7969 5.76366C14.7711 5.26163 13.6443 5.00044 12.5022 5ZM12.5022 19.1176C11.3389 19.1179 10.1959 18.8116 9.18871 18.2294C9.12156 18.1908 9.04555 18.1703 8.9681 18.1699C8.92063 18.1701 8.87349 18.1778 8.82838 18.1926L6.07888 19.1088C6.05296 19.1175 6.02515 19.1187 5.99857 19.1124C5.97198 19.1062 5.94767 19.0926 5.92835 19.0733C5.90904 19.054 5.89548 19.0297 5.88921 19.0031C5.88293 18.9765 5.88419 18.9487 5.89283 18.9228L6.80909 16.1765C6.82891 16.1171 6.83589 16.0542 6.82955 15.992C6.82321 15.9298 6.8037 15.8696 6.77232 15.8154C6.0423 14.5545 5.74886 13.0879 5.93753 11.6431C6.12621 10.1984 6.78644 8.85629 7.81582 7.82506C8.84519 6.79383 10.1861 6.1311 11.6306 5.9397C13.0752 5.7483 14.5425 6.03893 15.8049 6.76649C17.0674 7.49406 18.0544 8.61789 18.6129 9.96363C19.1714 11.3094 19.2701 12.8018 18.8937 14.2093C18.5173 15.6169 17.6869 16.8609 16.5313 17.7484C15.3756 18.6359 13.9594 19.1172 12.5022 19.1176Z" fill="white" />
    </symbol>
    <symbol id="phone" viewBox="0 0 25 25">
        <rect width="25" height="25" rx="12.5" fill="#5C5C5C" />
        <path d="M19.4361 15.4789L15.747 13.8281C15.604 13.7662 15.4478 13.7409 15.2926 13.7545C15.1374 13.7682 14.988 13.8203 14.858 13.9062C14.8476 13.9128 14.8376 13.9201 14.8283 13.9281L12.8907 15.5797C12.8476 15.606 12.7987 15.6212 12.7483 15.6241C12.6978 15.6269 12.6475 15.6173 12.6017 15.5961C11.3329 14.9836 10.0196 13.6804 9.4071 12.4265C9.38543 12.381 9.37538 12.3309 9.37783 12.2806C9.38028 12.2303 9.39517 12.1813 9.42116 12.1382L11.0774 10.1686C11.0852 10.1593 11.0923 10.1491 11.0993 10.139C11.1849 10.0091 11.2369 9.86001 11.2505 9.70507C11.2642 9.55014 11.2391 9.39425 11.1774 9.25144L9.52351 5.56858C9.44366 5.38205 9.30546 5.22646 9.12965 5.12517C8.95384 5.02388 8.74991 4.98237 8.54849 5.00685C7.56533 5.13648 6.66298 5.61957 6.00997 6.36588C5.35696 7.1122 4.99795 8.07071 5.00001 9.06238C5.00001 15.0937 9.90633 20 15.9377 20C16.9293 20.0021 17.8878 19.6431 18.6342 18.9901C19.3805 18.3371 19.8636 17.4347 19.9932 16.4515C20.0175 16.251 19.9764 16.0481 19.876 15.8728C19.7757 15.6975 19.6214 15.5594 19.4361 15.4789ZM19.3752 16.3734C19.2649 17.206 18.8551 17.97 18.2224 18.5224C17.5898 19.0748 16.7776 19.3779 15.9377 19.375C10.2516 19.375 5.62502 14.7484 5.62502 9.06238C5.62211 8.22248 5.9252 7.41028 6.47763 6.77762C7.03006 6.14496 7.794 5.73515 8.62662 5.62483C8.63911 5.62405 8.65163 5.62405 8.66412 5.62483C8.72577 5.62536 8.78589 5.64411 8.83691 5.67872C8.88793 5.71334 8.92757 5.76227 8.95084 5.81936L10.6001 9.50223C10.6193 9.54724 10.6277 9.59614 10.6246 9.645C10.6215 9.69385 10.6069 9.74128 10.5821 9.78348L8.92663 11.7523C8.91881 11.7624 8.911 11.7718 8.90397 11.7827C8.81577 11.9176 8.76383 12.0729 8.75315 12.2337C8.74248 12.3945 8.77343 12.5554 8.84303 12.7007C9.52195 14.0906 10.922 15.4804 12.3275 16.1594C12.4738 16.2285 12.6355 16.2586 12.797 16.2467C12.9584 16.2348 13.114 16.1813 13.2486 16.0914L13.2775 16.0695L15.2173 14.4195C15.2588 14.3941 15.3058 14.379 15.3542 14.3753C15.4027 14.3717 15.4514 14.3796 15.4962 14.3984L19.1846 16.0515C19.2468 16.0774 19.299 16.1228 19.3334 16.1808C19.3677 16.2388 19.3824 16.3064 19.3752 16.3734Z" fill="white" stroke="white" stroke-width="0.2" />
    </symbol>
    <symbol id="left" viewBox="0 0 24 46">
        <path d="M22.9965 1L1 23.0465M1.00346 22.9535L23 45" stroke="#51B8C1" stroke-width="2" stroke-linecap="round"/>
    </symbol>
    <symbol id="right" viewBox="0 0 24 46">
        <path d="M1.00346 45L23 22.9535M22.9965 23.0465L1 1" stroke="#51B8C1" stroke-width="2" stroke-linecap="round"/>
    </symbol>
</svg>