<svg width="82" height="82" fill="none" xmlns="http://www.w3.org/2000/svg"><path d="m76.375 63.045-.998-3.628a39 39 0 1 0-15.999 15.981l3.628.998 13.06 3.5a3.03 3.03 0 0 0 3.629-2.14 2.92 2.92 0 0 0 0-1.578l-3.32-13.133Zm-18.14-26.103a3.99 3.99 0 1 1-3.99 3.991 4.044 4.044 0 0 1 4.027-3.99h-.036Zm-34.537 7.982a3.99 3.99 0 1 1 3.99-3.99 4.045 4.045 0 0 1-3.99 3.99Zm17.287 0a3.99 3.99 0 1 1 3.99-3.99 4.046 4.046 0 0 1-3.99 3.99Z" stroke="#5C5C5C" stroke-width="3" stroke-linecap="round" stroke-linejoin="round"/></svg>