<svg width="80" height="87" viewBox="0 0 80 67" fill="none" xmlns="http://www.w3.org/2000/svg"><path d="M30.596 1.097c-.56.132-2.038.694-3.312 1.255-5.385 2.343-8.17 2.723-10.702 1.485-.578-.28-1.172-.512-1.308-.512-.425 0-1.274.908-1.274 1.354 0 .495 1.121 2.426 2.106 3.63 1.75 2.13 4.57 3.846 7.152 4.357 2.361.479 6.574.033 9.53-.99 5.996-2.08 5.606-1.98 7.627-1.98 2.09-.017 2.48.082 6.2 1.419 5.657 2.03 10.227 2.31 13.522.809 1.97-.908 3.602-2.162 4.927-3.83C65.998 6.924 67 5.142 67 4.663c0-.429-.866-1.337-1.257-1.337-.136 0-.73.231-1.291.512-2.531 1.254-5.351.858-10.736-1.485C50.709 1.048 49.588.784 47.295.899c-2.073.1-3.534.496-5.47 1.47l-1.325.66-1.325-.66c-2.055-1.04-3.38-1.37-5.64-1.453-1.359-.033-2.259.016-2.938.181Zm4.723 2.64c1.274.282 2.412.777 3.754 1.602 1.172.71 1.63.775 2.361.28 1.818-1.188 3.941-1.947 5.86-2.08 1.819-.115 2.889.133 5.47 1.288 3.483 1.551 6.065 2.278 8.273 2.344l1.19.033-.697.693c-.9.89-2.633 1.782-4.145 2.129-2.038.462-5.554.082-8.476-.925-.748-.247-2.26-.775-3.347-1.155-1.223-.412-2.599-.759-3.533-.874-2.123-.248-4.026 0-6.591.874-1.087.38-2.6.908-3.347 1.155-2.921 1.007-6.438 1.387-8.476.925-1.512-.347-3.245-1.238-4.145-2.13l-.697-.692 1.291-.033c2.192-.066 5.046-.908 8.613-2.525.832-.363 1.902-.776 2.378-.908 1.138-.297 2.99-.297 4.264 0Z" fill="#5C5C5C"/><path d="M1.045 1.203c-.203.083-.507.35-.659.584-.27.4-.304 1.118-.371 6.56-.169 14.17 1.097 23.215 3.664 26.12.456.5.675.617 1.165.617.32 0 .743-.117.912-.267.354-.334.287-.467.996 2.02 1.266 4.54 4.053 10.648 6.484 14.27 5.825 8.662 13.322 13.569 22.592 14.77 4.863.618 10.35.067 14.842-1.518 1.857-.651 5.251-2.437 7.041-3.705 3.175-2.22 6.67-5.926 9.118-9.63 2.398-3.623 5.066-9.48 6.366-14.004.776-2.72.692-2.537 1.047-2.203.168.15.59.267.911.267.49 0 .71-.117 1.132-.584 2.482-2.804 3.748-11.032 3.714-24.285-.016-6.86-.118-8.211-.608-8.695-.439-.45-1.266-.484-1.722-.084-.169.15-.675 1.235-1.114 2.404-2.381 6.309-5.809 12.684-9.253 17.207-1.604 2.12-4.745 5.308-6.535 6.627-1.806 1.335-4.728 2.787-6.534 3.238-3.985.984-8.122.367-12.343-1.853-.861-.45-1.689-.818-1.858-.818-.151 0-1.266.484-2.482 1.085-3.09 1.535-4.846 1.97-7.936 1.97-1.908.016-2.634-.067-3.799-.368-1.89-.484-4.795-1.92-6.585-3.254-1.79-1.336-4.93-4.523-6.534-6.627-3.462-4.556-6.738-10.631-9.203-17.09C3.037 2.755 2.531 1.67 2.38 1.52c-.389-.384-.878-.484-1.334-.317Zm6.062 16.44c4.457 7.36 9.996 12.768 15.28 14.938 2.567 1.051 4.239 1.385 7.058 1.385 3.479 0 5.843-.551 9.118-2.137l1.503-.734.692.384c1.3.734 3.563 1.586 5.404 2.053 2.482.6 5.96.634 8.223.083 8.172-2.003 15.213-8.996 21.444-21.313l1.52-3.004-.102 4.84c-.152 8.028-.81 13.636-1.959 16.673l-.371.968-.642-.617c-.726-.701-1.52-.835-2.043-.317-.22.217-.557 1.268-.996 3.037-2.229 8.88-6.298 16.49-11.55 21.648-4.052 3.972-8.594 6.359-14.149 7.46-1.621.317-2.448.384-5.538.384-3.09 0-3.918-.067-5.539-.384-3.9-.768-7.598-2.336-10.67-4.49C17 53.71 11.462 44.615 8.76 33.883c-.439-1.769-.776-2.82-.996-3.037-.523-.518-1.317-.384-2.043.317l-.642.617-.371-.968C3.578 27.791 2.902 22.2 2.75 14.138l-.101-4.84 1.672 3.254c.911 1.786 2.178 4.09 2.786 5.09Z" fill="#5C5C5C"/></svg>