<svg width="70" height="87" viewBox="0 0 70 81" fill="none" xmlns="http://www.w3.org/2000/svg"><path d="M30.978.71C18.833 2.04 9.137 7.733 4.257 16.382 2.106 20.214.983 23.78.282 29.114.032 30.99 0 32.789 0 47.225c0 17.94-.078 16.751 1.138 19.238.842 1.736 2.76 3.644 4.552 4.52 2.12 1.032 2.682 1.11 9.401 1.11h5.877v3.395c0 1.908.078 3.675.172 4.004.28 1.048 1.574 1.36 2.323.547.296-.328.312-.532.312-4.145 0-2.096.046-3.8.124-3.8.063 0 1.091.704 2.292 1.564 2.837 2.033 4.74 3.175 6.002 3.613 1.45.516 4.162.516 5.612 0 1.263-.438 3.165-1.58 6.003-3.613 1.2-.86 2.229-1.564 2.291-1.564.063 0 .125 1.72.156 3.832.047 3.722.063 3.831.405 4.176.515.531 1.513.484 1.996-.079.374-.438.374-.453.374-4.191v-3.738h5.893c6.704 0 7.265-.078 9.385-1.11 1.777-.877 3.71-2.785 4.552-4.52C70.061 64.038 70 65.007 70 47.146c0-14.342-.03-16.157-.28-18.033-.39-2.94-.67-4.364-1.294-6.413-1.87-6.178-5.27-11.105-10.274-14.921C51.198 2.51 40.363-.322 30.978.71Zm7 2.722c11.256 1.11 20.142 5.959 24.85 13.513 2.136 3.457 3.57 7.883 4.163 12.92.311 2.69.296 32.579-.016 33.705-.561 2.002-2.027 3.91-3.695 4.801-1.496.814-2.307.907-8.013.907h-5.223l.624-.5c5.254-4.254 8.044-9.87 9.058-18.19.296-2.471.561-8.43.452-10.01-.468-6.428-3.04-11.292-7.982-15.062-3.523-2.674-10.508-6.756-11.568-6.756-.717 0-1.107.453-1.949 2.252-1.48 3.16-3.414 6.021-5.628 8.367-5.097 5.396-12.83 9.275-20.734 10.417-1.902.282-2.323.516-2.479 1.392-.14.704.172 7.132.437 9.4 1.013 8.32 3.804 13.936 9.057 18.19l.624.5h-5.223c-5.705 0-6.516-.094-8.013-.907-1.668-.891-3.133-2.8-3.695-4.801-.311-1.127-.327-31.016-.015-33.706 1.45-12.356 7.795-20.38 19.253-24.336 5.098-1.768 11.053-2.55 15.715-2.096Zm6.392 20.301c3.29 1.893 6.298 4.02 7.904 5.568 2.4 2.3 4.053 5.35 4.801 8.853.234 1.079.281 2.002.281 4.926-.031 9.338-1.528 15.375-4.973 19.958-1.59 2.127-3.087 3.41-7.764 6.647l-4.661 3.222c-2.245 1.548-3.212 1.924-4.958 1.924s-2.712-.376-4.957-1.924l-4.662-3.222c-4.646-3.206-6.173-4.52-7.764-6.647-2.447-3.238-3.96-7.46-4.583-12.794-.203-1.69-.499-7.398-.405-7.57.047-.063.452-.157.904-.22 2.214-.312 6.766-1.626 9.307-2.72 1.668-.72 4.521-2.237 5.987-3.207 2.9-1.892 6.33-5.052 8.293-7.601 1.123-1.44 3.103-4.598 3.71-5.897l.453-.97.873.454a36.96 36.96 0 0 1 2.214 1.22Z" fill="#5C5C5C"/></svg>