<svg width="159" height="20" fill="none" xmlns="http://www.w3.org/2000/svg"><path d="M7 19H0v-1h2V2H0V1h7v1H5v7h9V2h-3V1h8v1h-3v16h2c-.098-.02.098 0 0 0 .312.058 1 .574 1 1h-8v-1h3v-8H5v8h1c.097 0 .903-.02 1 0 .312.058 0 .574 0 1Zm31 0h-7v-1h2l-2-6h-6l-2 6h1c.098 0 .902-.02 1 0 .312.058 0 .574 0 1h-5v-1h2l6-17h1l7 17h1c-.097-.02.097 0 0 0 .312.058 1 .574 1 1Zm-7-8-3-7-3 7h6Zm15 8h-7v-1h2V2h-2V1h7v1h-2v16h1c.097 0 .903-.02 1 0 .312.058 0 .574 0 1Zm10 0h-8v-1h3V2h-3V1h9c1.52 0 2.967.303 4 1 1.267.87 2 2.548 2 4 0 .6-.747 1.42-1 2-.682 1.47-1.148 1.555-3 2l4 8h1c.136 0 .903-.02 1 0 .234.058 0 .574 0 1h-4l-5-8h-3v7h3v1Zm0-17h-3v8h3c.877 0 2.337-.478 3-1 .975-.774 1-1.607 1-3 0-.62.253-1.439 0-2-.643-1.355-2.324-2-4-2Zm31 15c-1.793 1.064-4.031 1.98-6 2-2.69 0-4.324-1.22-6-3-1.579-1.723-3-3.465-3-6 0-2.09.87-4.394 2-6 1.637-2.265 3.92-3 7-3 .936 0 2.103-.213 3 0 1.365.348 2.435 1.439 3 2 0-.523-.058-.768 0-1 .097-.271.571-1 1-1v5h-1c-.136-.426-.805-.594-1-1-1.092-2.284-2.563-3-5-3-1.072 0-2.123.458-3 1-2.008 1.297-3 3.38-3 7 0 1.684.552 2.761 1 4 .916 2.535 2.466 4 5 4 2.982-.02 5.006-1.807 6-5h1v6c-.234 0-.864.058-1 0-.234-.116 0-1.187 0-2Zm16 2H90v-1h3V2h-3V1h8v1h-3v16h4c.214 0 .766.039 1 0 1.092-.252 1.532-1.22 2-3l1-2v6Zm9 0h-7v-1h2V2h-2V1h7v1h-2v16h1c-.097-.02.097 0 0 0 .312.058 1 .574 1 1Zm14-17V1h6v1h-2v17h-1L117 5v13h2c-.097-.02.097 0 0 0 .312.058 1 .574 1 1h-6v-1h2V2h-2V1h4l11 14V2h-3Zm15 17h-7v-1h2V2h-2V1h7v1h-2v16h1c-.097-.02.097 0 0 0 .312.058 1 .574 1 1Zm17-2c-1.793 1.064-4.031 1.98-6 2-2.69 0-4.324-1.22-6-3-1.579-1.723-2-3.465-2-6 0-2.09-.131-4.394 1-6 1.637-2.265 3.92-3 7-3 .936 0 2.103-.213 3 0 1.364.348 2.435 1.439 3 2 0-.523-.058-.768 0-1 .097-.271.571-1 1-1v5h-1c-.136-.426.195-.594 0-1-1.092-2.284-3.563-3-6-3-1.072 0-2.123.458-3 1-2.008 1.297-3 3.38-3 7 0 1.684.552 2.761 1 4 .916 2.535 2.466 4 5 4 2.982-.02 5.006-1.807 6-5h1v6c-.234 0-.864.058-1 0-.234-.116 0-1.187 0-2Z" fill="#5C5C5C"/></svg>